<svg width="36" height="31" viewBox="0 0 36 31" fill="none" xmlns="http://www.w3.org/2000/svg">
<path fill-rule="evenodd" clip-rule="evenodd" d="M10.9813 2.75768C10.4874 2.75768 9.98566 2.80413 9.482 2.89704C6.21892 3.50672 3.54311 6.32672 2.97528 9.75447C2.72248 11.2738 2.85666 12.8203 3.35837 14.2313C3.36226 14.2429 3.36615 14.2545 3.37004 14.2661C5.12798 19.8945 14.9192 26.7539 17.8789 28.7222C18.2056 28.9429 18.6159 28.939 18.9407 28.7222C21.8984 26.7539 31.6818 19.8964 33.4437 14.2661C33.9571 12.8203 34.0893 11.2738 33.8384 9.75447C33.2687 6.32672 30.5929 3.50672 27.3317 2.89704C24.162 2.31446 21.0603 3.61317 19.209 6.30543C18.8454 6.83382 17.9664 6.83382 17.6047 6.30543C16.0471 4.04091 13.5988 2.75768 10.9813 2.75768ZM18.4098 30.8203C17.8497 30.8203 17.2877 30.6577 16.7977 30.3326C12.8384 27.6984 3.42643 20.9184 1.51875 14.8583C0.912031 13.1474 0.752572 11.2738 1.05593 9.44092C1.76767 5.15575 5.00936 1.76091 9.12419 0.996389C12.6167 0.338323 16.0743 1.55187 18.4059 4.18414C20.7394 1.55574 24.195 0.344129 27.6895 0.996389C31.8044 1.76284 35.0461 5.15575 35.7558 9.44092C36.0611 11.2796 35.8997 13.1609 35.2891 14.8777C33.4028 20.9087 23.9831 27.6964 20.0219 30.3326C19.5318 30.6577 18.9698 30.8203 18.4098 30.8203Z" fill="black"/>
</svg>
