<svg width="36" height="31" viewBox="0 0 36 31" fill="none" xmlns="http://www.w3.org/2000/svg">
<path fill-rule="evenodd" clip-rule="evenodd" d="M18.4098 30.8203C17.8497 30.8203 17.2877 30.6577 16.7977 30.3326C12.8384 27.6984 3.42643 20.9184 1.51875 14.8583C0.912031 13.1474 0.752572 11.2738 1.05593 9.44092C1.76767 5.15575 5.00936 1.76091 9.12419 0.996389C12.6167 0.338323 16.0743 1.55187 18.4059 4.18414C20.7394 1.55574 24.195 0.344129 27.6895 0.996389C31.8044 1.76284 35.0461 5.15575 35.7558 9.44092C36.0611 11.2796 35.8997 13.1609 35.2891 14.8777C33.4028 20.9087 23.9831 27.6964 20.0219 30.3326C19.5318 30.6577 18.9698 30.8203 18.4098 30.8203Z" fill="black"/>
</svg>
