<svg width="31" height="31" viewBox="0 0 31 31" fill="none" xmlns="http://www.w3.org/2000/svg">
<path fill-rule="evenodd" clip-rule="evenodd" d="M1.20026 29.0574C0.809739 29.448 0.809739 30.0811 1.20026 30.4716L1.25397 30.5254C1.6445 30.9159 2.27766 30.9159 2.66818 30.5254L15.9057 17.2878L29.1434 30.5255C29.5339 30.916 30.1671 30.916 30.5576 30.5255L30.6113 30.4718C31.0018 30.0813 31.0018 29.4481 30.6113 29.0576L17.3736 15.8199L30.6124 2.58113C31.0029 2.1906 31.0029 1.55744 30.6124 1.16691L30.5587 1.11321C30.1682 0.722682 29.535 0.722681 29.1445 1.11321L15.9057 14.352L2.66707 1.11336C2.27654 0.722832 1.64338 0.722832 1.25285 1.11336L1.19914 1.16706C0.808619 1.55759 0.808619 2.19075 1.19914 2.58128L14.4378 15.8199L1.20026 29.0574Z" fill="black"/>
</svg>
