<svg width="35" height="30" viewBox="0 0 35 30" fill="none" xmlns="http://www.w3.org/2000/svg">
<path fill-rule="evenodd" clip-rule="evenodd" d="M10.0751 1.93737C9.58112 1.93737 9.07941 1.98382 8.57575 2.07672C5.31267 2.6864 2.63686 5.50641 2.06903 8.93416C1.81623 10.4535 1.95041 12 2.45212 13.4109C2.45601 13.4226 2.4599 13.4342 2.46379 13.4458C4.22173 19.0742 14.0129 25.9335 16.9726 27.9019C17.2993 28.1226 17.7097 28.1187 18.0344 27.9019C20.9922 25.9335 30.7756 19.0761 32.5374 13.4458C33.0508 12 33.183 10.4535 32.9322 8.93416C32.3624 5.50641 29.6866 2.6864 26.4255 2.07672C23.2557 1.49414 20.1541 2.79286 18.3028 5.48512C17.9391 6.01351 17.0602 6.01351 16.6985 5.48512C15.1408 3.2206 12.6925 1.93737 10.0751 1.93737ZM17.5035 30C16.9435 30 16.3815 29.8374 15.8914 29.5123C11.9322 26.8781 2.52018 20.098 0.612505 14.038C0.0057813 12.3271 -0.153678 10.4535 0.149684 8.62061C0.861417 4.33544 4.10311 0.940594 8.21794 0.176076C11.7105 -0.48199 15.168 0.731561 17.4996 3.36382C19.8332 0.735432 23.2888 -0.476183 26.7833 0.176076C30.8981 0.942529 34.1398 4.33544 34.8496 8.62061C35.1549 10.4593 34.9935 12.3406 34.3829 14.0574C32.4966 20.0884 23.0768 26.8761 19.1156 29.5123C18.6256 29.8374 18.0636 30 17.5035 30Z" fill="white"/>
</svg>
