<svg width="40" height="30" viewBox="0 0 40 30" fill="none" xmlns="http://www.w3.org/2000/svg">
<path fill-rule="evenodd" clip-rule="evenodd" d="M24.8644 19.2849C25.1411 19.2849 25.4092 19.3899 25.6103 19.5806C25.8244 19.782 25.9454 20.0628 25.9454 20.3564V26.3419L37.3897 14.9988L25.9454 3.65577V9.64125C25.9454 9.92627 25.8308 10.2006 25.6276 10.3999C25.4244 10.5992 25.1498 10.7128 24.8644 10.7128C24.8514 10.7085 24.8449 10.7128 24.8341 10.7128C23.0633 10.7128 9.52819 11.1885 3.47199 25.3646C9.24495 20.8943 16.2071 18.8455 24.1898 19.2613C24.4838 19.2763 24.7044 19.287 24.8125 19.287C24.8298 19.2849 24.8471 19.2849 24.8644 19.2849ZM1.08065 30C0.894703 30 0.708758 29.955 0.54011 29.8564C0.112003 29.6121 -0.0934019 29.1106 0.0406518 28.6392C4.98118 11.1178 19.4179 8.88047 23.7833 8.60616V1.06914C23.7833 0.636247 24.0471 0.244073 24.4514 0.0790604C24.8557 -0.0816666 25.3184 0.00619706 25.6298 0.310507L39.6838 14.2402C40.1054 14.6602 40.1054 15.3374 39.6838 15.7574L25.6298 29.6871C25.3184 29.9936 24.8536 30.0814 24.4514 29.9186C24.0471 29.7536 23.7833 29.3614 23.7833 28.9285V21.3872C15.0417 20.98 7.66441 23.7895 1.85254 29.6785C1.64497 29.8886 1.36389 30 1.08065 30Z" fill="white"/>
</svg>
