<svg width="41" height="31" viewBox="0 0 41 31" fill="none" xmlns="http://www.w3.org/2000/svg">
<path fill-rule="evenodd" clip-rule="evenodd" d="M1.9869 30.8203C1.80095 30.8203 1.61501 30.7753 1.44636 30.6767C1.01825 30.4324 0.812848 29.931 0.946902 29.4595C5.88743 11.9381 20.3241 9.70078 24.6895 9.42648V1.88945C24.6895 1.45656 24.9533 1.06439 25.3576 0.899373C25.762 0.738646 26.2247 0.82651 26.536 1.13082L40.59 15.0605C41.0117 15.4805 41.0117 16.1577 40.59 16.5778L26.536 30.5074C26.2247 30.8139 25.7598 30.9017 25.3576 30.7389C24.9533 30.5739 24.6895 30.1817 24.6895 29.7488V22.2075C15.9479 21.8003 8.57066 24.6098 2.75879 30.4989C2.55122 30.7089 2.27014 30.8203 1.9869 30.8203Z" fill="black"/>
</svg>
