<svg width="41" height="31" viewBox="0 0 41 31" fill="none" xmlns="http://www.w3.org/2000/svg">
<path fill-rule="evenodd" clip-rule="evenodd" d="M25.7706 20.1052C26.0474 20.1052 26.3155 20.2102 26.5166 20.4009C26.7306 20.6024 26.8517 20.8831 26.8517 21.1767V27.1622L38.296 15.8191L26.8517 4.47608V10.4616C26.8517 10.7466 26.7371 11.0209 26.5339 11.2202C26.3306 11.4195 26.056 11.5331 25.7706 11.5331C25.7576 11.5288 25.7512 11.5331 25.7403 11.5331C23.9695 11.5331 10.4344 12.0088 4.37824 26.1849C10.1512 21.7146 17.1133 19.6659 25.096 20.0816C25.3901 20.0966 25.6106 20.1073 25.7187 20.1073C25.736 20.1052 25.7533 20.1052 25.7706 20.1052ZM1.9869 30.8203C1.80095 30.8203 1.61501 30.7753 1.44636 30.6767C1.01825 30.4324 0.812848 29.931 0.946902 29.4595C5.88743 11.9381 20.3241 9.70078 24.6895 9.42648V1.88945C24.6895 1.45656 24.9533 1.06439 25.3576 0.899373C25.762 0.738646 26.2247 0.82651 26.536 1.13082L40.59 15.0605C41.0117 15.4805 41.0117 16.1577 40.59 16.5778L26.536 30.5074C26.2247 30.8139 25.7598 30.9017 25.3576 30.7389C24.9533 30.5739 24.6895 30.1817 24.6895 29.7488V22.2075C15.9479 21.8003 8.57066 24.6098 2.75879 30.4989C2.55122 30.7089 2.27014 30.8203 1.9869 30.8203Z" fill="black"/>
</svg>
