<svg width="40" height="30" viewBox="0 0 40 30" fill="none" xmlns="http://www.w3.org/2000/svg">
<path fill-rule="evenodd" clip-rule="evenodd" d="M1.08065 30C0.894703 30 0.708758 29.955 0.54011 29.8564C0.112003 29.6121 -0.0934019 29.1106 0.0406518 28.6392C4.98118 11.1178 19.4179 8.88047 23.7833 8.60616V1.06914C23.7833 0.636247 24.0471 0.244073 24.4514 0.0790604C24.8557 -0.0816666 25.3184 0.00619707 25.6298 0.310507L39.6838 14.2402C40.1054 14.6602 40.1054 15.3374 39.6838 15.7574L25.6298 29.6871C25.3184 29.9936 24.8536 30.0814 24.4514 29.9186C24.0471 29.7536 23.7833 29.3614 23.7833 28.9285V21.3872C15.0417 20.98 7.66441 23.7895 1.85254 29.6785C1.64497 29.8886 1.36389 30 1.08065 30Z" fill="white"/>
</svg>
