<svg width="30" height="30" viewBox="0 0 30 30" fill="none" xmlns="http://www.w3.org/2000/svg">
<path fill-rule="evenodd" clip-rule="evenodd" d="M27.5 5.01227C26.25 5.62477 25.025 5.87352 23.75 6.24977C22.3487 4.66852 20.2712 4.58102 18.275 5.32852C16.2787 6.07602 14.9712 7.90352 15 9.99977V11.2498C10.9437 11.3535 7.33125 9.50602 5 6.24977C5 6.24977 -0.2275 15.541 10 19.9998C7.66 21.5585 5.32625 22.6098 2.5 22.4998C6.635 24.7535 11.1413 25.5285 15.0425 24.396C19.5175 23.096 23.195 19.7423 24.6062 14.7185C25.0272 13.1906 25.2363 11.6121 25.2275 10.0273C25.225 9.71602 27.115 6.56227 27.5 5.01102V5.01227Z" stroke="black" stroke-width="2" stroke-linecap="round" stroke-linejoin="round"/>
</svg>
