<svg width="35" height="30" viewBox="0 0 35 30" fill="none" xmlns="http://www.w3.org/2000/svg">
<path fill-rule="evenodd" clip-rule="evenodd" d="M17.5035 30C16.9435 30 16.3815 29.8374 15.8914 29.5123C11.9322 26.8781 2.52018 20.098 0.612505 14.038C0.00578129 12.3271 -0.153678 10.4535 0.149684 8.62061C0.861417 4.33544 4.10311 0.940594 8.21794 0.176076C11.7105 -0.48199 15.168 0.731561 17.4996 3.36382C19.8332 0.735432 23.2888 -0.476183 26.7833 0.176076C30.8981 0.942529 34.1398 4.33544 34.8496 8.62061C35.1549 10.4593 34.9935 12.3406 34.3829 14.0574C32.4966 20.0884 23.0768 26.8761 19.1156 29.5123C18.6256 29.8374 18.0636 30 17.5035 30Z" fill="white"/>
</svg>
